# xmcd
#
# Track frame offsets:
#	150
#	19794
#	36355
#	56387
#	76177
#	106550
#	128220
#	147535
#	165377
#	195325
#
# Disc length: 2865 seconds
#
# Revision: 1
# Processed by: cddbd v1.5.2PL0 Copyright (c) Steve Scherf et al.
# Submitted via: audiograbber 1.83.01
#
DISCID=750b2f0a
DTITLE=Tenry Johns - The King Kong Rocker
DYEAR=1999
DGENRE=Blues
TTITLE0=In Here Tonight
TTITLE1=Wave Bye Bye
TTITLE2=Rockin' and Rollin In The USA
TTITLE3=Trust Me
TTITLE4=Just Like You
TTITLE5=Dirty Old Man
TTITLE6=You And Me
TTITLE7=True Love
TTITLE8=Can't Go On This Way
TTITLE9=Let The Good Times Roll
EXTD=
EXTT0=
EXTT1=
EXTT2=
EXTT3=
EXTT4=
EXTT5=
EXTT6=
EXTT7=
EXTT8=
EXTT9=
PLAYORDER=
